<svg width="84" height="84" viewBox="0 0 84 84" fill="none" xmlns="http://www.w3.org/2000/svg">
<g id="australia">
<g clip-path="url(#clip0_787_6089)">
<path id="Vector" d="M83.7 42.4C83.7 65.3749 65.0749 84 42.1 84C19.1251 84 0.5 65.3749 0.5 42.4C0.5 42.4098 42.1 0.804761 42.1 0.800049C65.0749 0.800049 83.7 19.4251 83.7 42.4Z" fill="#0052B4"/>
<g id="Group">
<path id="Vector_2" d="M42.1007 0.800049C42.0985 0.800049 42.096 0.800211 42.0938 0.800211L42.1007 0.800049Z" fill="#F0F0F0"/>
<path id="Vector_3" d="M41.9883 42.4001H42.0996C42.0996 42.3624 42.0996 42.3264 42.0996 42.2888C42.0625 42.326 42.0255 42.3631 41.9883 42.4001Z" fill="#F0F0F0"/>
<path id="Vector_4" d="M42.1 22.5044C42.1 15.1845 42.1 10.388 42.1 0.800049H42.093C19.1212 0.803786 0.5 19.4271 0.5 42.3999H22.2043V30.1779L34.4263 42.3999H41.9888C42.0261 42.3628 42.0631 42.3258 42.1002 42.2886C42.1002 39.4859 42.1002 36.9852 42.1002 34.7265L29.878 22.5044H42.1Z" fill="#F0F0F0"/>
</g>
<g id="Group_2">
<path id="Vector_5" d="M21.5479 6.22607C15.0415 9.93091 9.63257 15.3399 5.92773 21.8462V42.4H16.78V17.0785V17.0783H42.1017C42.1017 13.6556 42.1017 10.3948 42.1017 6.22607H21.5479Z" fill="#D80027"/>
<path id="Vector_6" d="M42.1006 37.2844L27.3207 22.5047H22.2051C22.2051 22.5045 22.2051 22.5047 22.2051 22.5047L42.1004 42.4001H42.1006C42.1006 42.4001 42.1006 38.873 42.1006 37.2844Z" fill="#D80027"/>
</g>
<g id="Group_3">
<path id="Vector_7" d="M25.5885 49.6348L27.8716 54.4087L33.0273 53.2171L30.7185 57.9787L34.8645 61.2665L29.7023 62.43L29.7168 67.7217L25.5885 64.4111L21.4603 67.7217L21.4748 62.43L16.3125 61.2665L20.4587 57.9787L18.1496 53.2171L23.3055 54.4087L25.5885 49.6348Z" fill="#F0F0F0"/>
<path id="Vector_8" d="M62.7844 58.6785L63.926 61.0654L66.5039 60.4695L65.3493 62.8503L67.4225 64.4943L64.8413 65.0761L64.8485 67.7219L62.7844 66.0665L60.7203 67.7219L60.7275 65.0761L58.1465 64.4943L60.2195 62.8503L59.0651 60.4695L61.6428 61.0654L62.7844 58.6785Z" fill="#F0F0F0"/>
<path id="Vector_9" d="M52.1635 33.3567L53.3049 35.7438L55.8828 35.1478L54.7284 37.5286L56.8014 39.1726L54.2204 39.7543L54.2274 42.4001L52.1635 40.7448L50.0994 42.4001L50.1064 39.7543L47.5254 39.1726L49.5984 37.5286L48.444 35.1478L51.0219 35.7438L52.1635 33.3567Z" fill="#F0F0F0"/>
<path id="Vector_10" d="M62.7844 18.887L63.926 21.2741L66.5039 20.6782L65.3495 23.059L67.4223 24.7028L64.8413 25.2848L64.8485 27.9306L62.7844 26.2752L60.7203 27.9306L60.7275 25.2848L58.1465 24.7028L60.2193 23.059L59.0651 20.6782L61.6428 21.2741L62.7844 18.887Z" fill="#F0F0F0"/>
<path id="Vector_11" d="M72.06 29.7393L73.2014 32.1264L75.7793 31.5303L74.6249 33.9111L76.6979 35.5551L74.1167 36.137L74.1239 38.7827L72.06 37.1275L69.9959 38.7827L70.0029 36.137L67.4219 35.5551L69.4949 33.9111L68.3405 31.5303L70.9182 32.1264L72.06 29.7393Z" fill="#F0F0F0"/>
<path id="Vector_12" d="M65.4267 42.4001L66.3245 45.1636H69.2303L66.8794 46.8717L67.7776 49.635L65.4267 47.9271L63.076 49.635L63.9738 46.8717L61.623 45.1636H64.5287L65.4267 42.4001Z" fill="#F0F0F0"/>
</g>
</g>
<rect x="1" y="1.30005" width="82.2" height="82.2" rx="41.1" stroke="#222222" stroke-opacity="0.2"/>
</g>
<defs>
<clipPath id="clip0_787_6089">
<rect x="0.5" y="0.800049" width="83.2" height="83.2" rx="41.6" fill="white"/>
</clipPath>
</defs>
</svg>
