<svg width="63" height="63" viewBox="0 0 63 63" fill="none" xmlns="http://www.w3.org/2000/svg">
<g id="canada">
<g clip-path="url(#clip0_787_6105)">
<path id="Vector" d="M31.2996 62.4C48.5309 62.4 62.4996 48.4313 62.4996 31.2C62.4996 13.9687 48.5309 0 31.2996 0C14.0683 0 0.0996094 13.9687 0.0996094 31.2C0.0996094 48.4313 14.0683 62.4 31.2996 62.4Z" fill="#F0F0F0"/>
<g id="Group">
<path id="Vector_2" d="M62.5001 31.1998C62.5001 18.8303 55.3015 8.1423 44.8652 3.0957V59.3038C55.3015 54.2574 62.5001 43.5694 62.5001 31.1998Z" fill="#D80027"/>
<path id="Vector_3" d="M0.0996094 31.1998C0.0996094 43.5694 7.29816 54.2574 17.7344 59.304V3.0957C7.29816 8.1423 0.0996094 18.8303 0.0996094 31.1998Z" fill="#D80027"/>
<path id="Vector_4" d="M36.7255 35.2693L42.1515 32.5562L39.4386 31.1997V28.4867L34.0124 31.1997L36.7255 25.7736H34.0124L31.2994 21.7041L28.5863 25.7736H25.8733L28.5863 31.1997L23.1602 28.4867V31.1997L20.4473 32.5562L25.8733 35.2693L24.5168 37.9823H29.9429V42.0519H32.6559V37.9823H38.082L36.7255 35.2693Z" fill="#D80027"/>
</g>
</g>
<rect x="0.599609" y="0.5" width="61.4" height="61.4" rx="30.7" stroke="#222222" stroke-opacity="0.2"/>
</g>
<defs>
<clipPath id="clip0_787_6105">
<rect x="0.0996094" width="62.4" height="62.4" rx="31.2" fill="white"/>
</clipPath>
</defs>
</svg>
