<svg width="84" height="84" viewBox="0 0 84 84" fill="none" xmlns="http://www.w3.org/2000/svg">
<g id="european union">
<g clip-path="url(#clip0_181_21046)">
<path id="Vector" d="M42.1 84C65.075 84 83.7 65.3751 83.7 42.4C83.7 19.425 65.075 0.800049 42.1 0.800049C19.125 0.800049 0.5 19.425 0.5 42.4C0.5 65.3751 19.125 84 42.1 84Z" fill="#0052B4"/>
<g id="Group">
<path id="Vector_2" d="M42.0975 17.0786L43.4444 21.2238H47.8027L44.2766 23.7856L45.6236 27.9309L42.0975 25.3689L38.5712 27.9309L39.9182 23.7856L36.3921 21.2238H40.7505L42.0975 17.0786Z" fill="#FFDA44"/>
<path id="Vector_3" d="M24.1903 24.495L28.074 26.4736L31.1559 23.392L30.4738 27.6966L34.3574 29.6754L30.0526 30.3572L29.3708 34.6622L27.392 30.7786L23.0874 31.4606L26.1692 28.3788L24.1903 24.495Z" fill="#FFDA44"/>
<path id="Vector_4" d="M16.7754 42.4003L20.9206 41.0534V36.6949L23.4823 40.2212L27.6276 38.8742L25.0655 42.4003L27.6276 45.9264L23.4823 44.5796L20.9206 48.1057V43.7473L16.7754 42.4003Z" fill="#FFDA44"/>
<path id="Vector_5" d="M24.1903 60.3054L26.1691 56.4217L23.0874 53.3398L27.3922 54.022L29.3706 50.1384L30.0526 54.4432L34.3573 55.1251L30.4742 57.1038L31.1559 61.4085L28.074 58.3266L24.1903 60.3054Z" fill="#FFDA44"/>
<path id="Vector_6" d="M42.0975 67.722L40.7503 63.5768H36.3921L39.9183 61.015L38.5712 56.8701L42.0975 59.4318L45.6236 56.8701L44.2766 61.015L47.8027 63.5768H43.4443L42.0975 67.722Z" fill="#FFDA44"/>
<path id="Vector_7" d="M60.0032 60.3054L56.1196 58.3268L53.0377 61.4086L53.7197 57.1037L49.8364 55.1251L54.141 54.4432L54.8229 50.1384L56.8015 54.022L61.1061 53.3398L58.0243 56.422L60.0032 60.3054Z" fill="#FFDA44"/>
<path id="Vector_8" d="M67.4193 42.4002L63.2741 43.7472V48.1056L60.7123 44.5793L56.5674 45.9263L59.1292 42.4002L56.5674 38.8741L60.7124 40.2211L63.2741 36.6948V41.0534L67.4193 42.4002Z" fill="#FFDA44"/>
<path id="Vector_9" d="M60.0032 24.4949L58.0245 28.3786L61.1063 31.4604L56.8013 30.7782L54.8229 34.6618L54.141 30.357L49.8364 29.675L53.7197 27.6964L53.0377 23.392L56.1198 26.4736L60.0032 24.4949Z" fill="#FFDA44"/>
</g>
</g>
<rect x="1" y="1.30005" width="82.2" height="82.2" rx="41.1" stroke="#222222" stroke-opacity="0.2"/>
</g>
<defs>
<clipPath id="clip0_181_21046">
<rect x="0.5" y="0.800049" width="83.2" height="83.2" rx="41.6" fill="white"/>
</clipPath>
</defs>
</svg>
